<svg version="1.2" preserveAspectRatio="xMidYMid meet" height="3456" viewBox="0 0 5184 2592.000001" zoomAndPan="magnify" width="6912" xmlns:xlink="http://www.w3.org/1999/xlink" xmlns="http://www.w3.org/2000/svg"><g id="3fda28a045"><path d="M 1 0 L 5183 0 L 5183 2591 L 1 2591 Z M 1 0" style="stroke:none;fill-rule:nonzero;fill:#ffffff;fill-opacity:1;"></path><path d="M 1 0 L 5183 0 L 5183 2591 L 1 2591 Z M 1 0" style="stroke:none;fill-rule:nonzero;fill:#ffffff;fill-opacity:1;"></path><path d="M 3278.050781 1512.027344 C 3325.824219 1522.71875 3468.628906 1580.996094 3473.082031 1584.363281 C 3498.71875 1603.71875 3276.472656 1526.882812 3271.644531 1522.496094 C 3268.558594 1519.695312 3269.042969 1516.050781 3272.742188 1513.988281 C 3274.425781 1513.050781 3276.386719 1512.632812 3278.050781 1512.027344 Z M 3278.050781 1512.027344" style="stroke:none;fill-rule:nonzero;fill:#19887a;fill-opacity:1;"></path><path d="M 2391.304688 817.203125 C 2391.265625 826.351562 2383.660156 822.53125 2381.515625 818.960938 C 2362.910156 788.03125 2320.269531 628.292969 2310.859375 593.679688 C 2309.457031 588.511719 2313.242188 584.773438 2316.558594 592.027344 C 2331.007812 623.605469 2389.972656 811.800781 2391.304688 817.203125 Z M 2391.304688 817.203125" style="stroke:none;fill-rule:nonzero;fill:#19887a;fill-opacity:1;"></path><path d="M 1970.808594 1000.464844 C 1928.351562 983.453125 1808.242188 874.125 1810.101562 869.402344 C 1811.28125 866.402344 1815.828125 871.160156 1850.476562 897.664062 C 1982.355469 998.566406 1986.777344 993.539062 1970.808594 1000.464844 Z M 1970.808594 1000.464844" style="stroke:none;fill-rule:nonzero;fill:#19887a;fill-opacity:1;"></path><path d="M 2719.933594 603.757812 C 2722.75 606.601562 2653.453125 775.351562 2648.832031 781.996094 C 2646.648438 785.140625 2641.230469 784.339844 2640.449219 780 C 2637.519531 763.664062 2713.21875 596.996094 2719.933594 603.757812 Z M 2719.933594 603.757812" style="stroke:none;fill-rule:nonzero;fill:#19887a;fill-opacity:1;"></path><path d="M 1709.859375 1297.996094 C 1709.253906 1297.734375 1708.808594 1296.453125 1708.835938 1295.652344 C 1709.03125 1291.132812 1752.308594 1293.820312 1788.703125 1295.25 C 1882.195312 1298.917969 1876.691406 1295.371094 1882.296875 1297.390625 C 1887.179688 1299.148438 1886.183594 1307.664062 1875.011719 1309.058594 C 1818.730469 1316.085938 1713.699219 1299.640625 1709.859375 1297.996094 Z M 1709.859375 1297.996094" style="stroke:none;fill-rule:nonzero;fill:#19887a;fill-opacity:1;"></path><path d="M 3207.835938 1062.070312 C 3202.851562 1061.984375 3201.996094 1058.425781 3204.3125 1055.664062 C 3209.898438 1049.007812 3232.628906 1035.984375 3237.574219 1033.269531 C 3398.355469 944.941406 3396.273438 959.492188 3248.980469 1041.597656 C 3215.941406 1060.015625 3213.328125 1062.171875 3207.828125 1062.078125 Z M 3207.835938 1062.070312" style="stroke:none;fill-rule:nonzero;fill:#19887a;fill-opacity:1;"></path><path d="M 3107.84375 1250.324219 C 3107.164062 1211.726562 3105.492188 1116.035156 3105.222656 1111.433594 C 3102.917969 1072.121094 3105.769531 1057.152344 3099.886719 1051.785156 C 3094.671875 1047.03125 3082.605469 1049.796875 3054.046875 1049.835938 C 3035.433594 1049.859375 3031.59375 1050.214844 3031.324219 1049.382812 C 3031.222656 1049.082031 3031.59375 1048.621094 3031.890625 1047.929688 C 3030.878906 1050.261719 3037.945312 1034.933594 3048.765625 1011.4375 C 3065.367188 975.386719 3090.839844 920.097656 3109.589844 879.863281 C 3109.601562 879.847656 3109.878906 879.257812 3110.417969 878.152344 C 3118.90625 860.503906 3190.40625 711.988281 3194.078125 701.796875 C 3197.394531 692.578125 3194.875 691.550781 3167.722656 680.445312 C 3162.960938 678.5 3157.457031 676.25 3151.097656 673.59375 C 3041.511719 627.789062 3039.988281 628.441406 3035.609375 636.445312 C 2985.503906 728.003906 2893.894531 938.269531 2853.011719 1034.3125 C 2851.625 1037.570312 2850.527344 1040.269531 2849.617188 1042.5 C 2846.046875 1051.296875 2845.425781 1052.8125 2841.707031 1052.746094 C 2842.261719 1052.761719 2840.972656 1052.765625 2838.292969 1052.773438 C 2827.855469 1052.804688 2796.339844 1052.902344 2771.75 1053.871094 C 2769.316406 1053.972656 2769.40625 1052.535156 2769.613281 1049.453125 C 2769.742188 1047.386719 2769.929688 1044.582031 2769.425781 1041.003906 C 2765.53125 1013.183594 2761.253906 1001.839844 2753.769531 988.582031 C 2733.542969 952.746094 2693.679688 925.65625 2655.191406 912.566406 C 2495.507812 858.265625 2347.558594 943.96875 2333.082031 1033.855469 C 2330.53125 1049.675781 2331.921875 1058.640625 2332.679688 1063.53125 C 2333.277344 1067.394531 2333.484375 1068.714844 2331.035156 1068.867188 C 2330.375 1068.90625 2328.191406 1069.023438 2324.691406 1069.207031 C 2274.734375 1071.835938 1956.179688 1088.601562 1951.277344 1105.738281 C 1948.5 1115.488281 1971.164062 1824.332031 2015.871094 1961.769531 C 2025.472656 1991.292969 2034.183594 1999.085938 2050.796875 2000.421875 C 2150.992188 2008.484375 2936.453125 1984.453125 3100.757812 1954.265625 C 3114.84375 1951.683594 3122.195312 1951.246094 3126.734375 1947.460938 C 3133.976562 1941.402344 3134.050781 1926.769531 3142.972656 1881.046875 C 3156.789062 1810.273438 3229.160156 1331.042969 3221.957031 1288.765625 L 3221.917969 1288.554688 C 3220.5625 1280.503906 3220.441406 1279.757812 3032.46875 1285.34375 C 3025.039062 1285.5625 3019.777344 1285.835938 3016.050781 1286.03125 C 3007.285156 1286.484375 3007.015625 1286.5 3006.882812 1284.320312 C 3004.671875 1246.558594 3003.882812 1222.964844 3003.296875 1205.417969 C 3002.71875 1188.109375 3002.339844 1176.683594 3000.980469 1163.347656 C 2999.761719 1151.347656 3000.164062 1144.539062 2996.957031 1140.921875 C 2992.558594 1135.945312 2981.347656 1136.992188 2949.777344 1138.867188 C 2902.542969 1141.679688 2853.773438 1143.582031 2798.96875 1145.71875 C 2668.859375 1150.789062 2504.761719 1157.1875 2246.550781 1180.21875 C 2147.90625 1189.023438 2131.933594 1194.550781 2128.902344 1190.46875 C 2128.296875 1189.65625 2128.207031 1188.464844 2128.078125 1186.847656 C 2128.078125 1186.839844 2128.070312 1186.726562 2128.054688 1186.523438 C 2127.753906 1182.5 2124.726562 1142.050781 2126.320312 1136.589844 C 2127.144531 1133.773438 2127.875 1133.722656 2140.433594 1132.902344 C 2143.324219 1132.710938 2146.835938 1132.480469 2151.125 1132.167969 C 2485.742188 1107.597656 2733.710938 1105.699219 2879.617188 1104.582031 C 2958.011719 1103.984375 3006.949219 1103.609375 3024.027344 1100.066406 C 3026.101562 1099.632812 3026.164062 1100.488281 3026.601562 1106.792969 C 3026.695312 1108.089844 3026.796875 1109.621094 3026.945312 1111.417969 C 3028.601562 1132.105469 3030.125 1148.28125 3031.203125 1159.601562 C 3032.105469 1169.191406 3032.683594 1175.296875 3032.726562 1177.710938 C 3033.148438 1200.109375 3033.296875 1217.203125 3033.40625 1230.246094 C 3033.761719 1270.941406 3033.769531 1272.191406 3040.714844 1272.058594 C 3104.636719 1270.824219 3108.328125 1270.542969 3108.121094 1266.257812 C 3108.121094 1266.214844 3108.011719 1260.101562 3107.84375 1250.324219 Z M 2078.175781 1900.476562 C 2104.816406 1717.644531 2090.632812 1398.9375 2078.136719 1214.597656 C 2077.792969 1209.476562 2549.820312 1172.707031 2863.058594 1162.855469 C 2961.722656 1159.746094 2977.757812 1153.320312 2981.003906 1157.304688 C 2981.671875 1158.121094 2981.792969 1159.378906 2981.988281 1161.191406 C 2982.519531 1166.191406 2983.550781 1173.089844 2984.191406 1177.386719 C 2984.507812 1179.539062 2984.730469 1181.039062 2984.75 1181.324219 C 2986.757812 1222.386719 2989.148438 1247.886719 2990.605469 1263.542969 C 2992.410156 1282.730469 2992.820312 1287.125 2989.453125 1287.25 C 2989.359375 1287.257812 2960.792969 1288.761719 2932.234375 1290.261719 C 2903.667969 1291.761719 2875.109375 1293.265625 2875.003906 1293.273438 C 2862.789062 1294.65625 2861.0625 1299.761719 2857.480469 1310.25 C 2853.902344 1320.761719 2848.484375 1336.667969 2828.867188 1359.667969 C 2739.910156 1463.925781 2558.046875 1447.425781 2504.292969 1333.589844 C 2502.78125 1330.382812 2502.054688 1328.144531 2500.582031 1326.621094 C 2496.714844 1322.621094 2487.707031 1323.597656 2445.808594 1325.140625 C 2436.996094 1325.464844 2425.816406 1325.941406 2413.121094 1326.535156 C 2413.253906 1327.269531 2413.378906 1327.957031 2413.492188 1328.589844 C 2414.929688 1336.613281 2414.949219 1336.707031 2416.832031 1336.761719 C 2456.324219 1337.925781 2490.964844 1372.125 2492.253906 1411.644531 C 2492.925781 1432.023438 2486.816406 1449.574219 2479.40625 1459.34375 C 2478.6875 1460.292969 2478.140625 1461.019531 2477.851562 1461.835938 C 2476.539062 1465.515625 2480.523438 1471.078125 2497.804688 1508.019531 L 2525.84375 1568.027344 C 2526.238281 1568.78125 2526.476562 1569.347656 2526.894531 1569.703125 C 2528.316406 1570.910156 2531.824219 1569.65625 2550.683594 1564.765625 C 2550.90625 1564.710938 2643.777344 1541.886719 2647.402344 1541.402344 C 2649.066406 1541.191406 2649.203125 1539.980469 2649.398438 1538.242188 C 2649.6875 1535.703125 2650.117188 1532.050781 2655.546875 1528.695312 C 2659.308594 1526.371094 2686.027344 1520.496094 2689.726562 1519.84375 C 2697.332031 1518.507812 2702.707031 1521.359375 2704.816406 1531.355469 C 2710.644531 1558.910156 2710.730469 1560.710938 2697.972656 1565.621094 C 2687.886719 1569.496094 2672.734375 1572.917969 2667.128906 1573.03125 C 2661.511719 1573.140625 2659.671875 1571.570312 2658.195312 1570.304688 C 2656.855469 1569.164062 2655.816406 1568.28125 2652.53125 1569.125 L 2541.351562 1598.007812 C 2541.003906 1598.074219 2540.722656 1598.101562 2540.5625 1598.261719 C 2539.132812 1599.664062 2547.625 1611.15625 2608.234375 1744.203125 C 2615.441406 1760.019531 2639.554688 1853.214844 2641.878906 1870.421875 C 2643.375 1881.484375 2644.472656 1886.113281 2643.953125 1890.558594 C 2643.28125 1896.265625 2639.945312 1901.660156 2631.347656 1919.945312 C 2626.371094 1930.53125 2622.347656 1921.488281 2586.6875 1841.242188 C 2583.289062 1833.597656 2579.605469 1825.308594 2575.605469 1816.328125 C 2490.628906 1625.554688 2486.816406 1612.996094 2483.308594 1613.089844 C 2483.0625 1613.089844 2482.820312 1613.164062 2482.550781 1613.226562 L 2481.644531 1613.480469 C 2467.898438 1617.207031 2443.820312 1623.742188 2430.472656 1625.898438 C 2428.210938 1626.269531 2428.21875 1626.808594 2428.269531 1630.453125 C 2428.28125 1631.226562 2428.292969 1632.144531 2428.285156 1633.222656 C 2427.832031 1709.203125 2423.441406 1935.21875 2420.980469 1960.820312 C 2420.542969 1965.367188 2416.433594 1966.929688 2412.835938 1964.082031 C 2404.09375 1957.1875 2398.234375 1952.789062 2393.902344 1947.203125 C 2382.933594 1933.070312 2381.769531 1911.328125 2368.398438 1821.933594 C 2368.070312 1819.738281 2367.75 1817.917969 2367.453125 1816.207031 C 2364.273438 1798.003906 2363.453125 1793.308594 2377.742188 1489.949219 L 2377.769531 1489.929688 C 2377.925781 1486.636719 2376.234375 1485.644531 2372.664062 1483.5625 C 2369.28125 1481.582031 2364.207031 1478.617188 2357.429688 1471.753906 C 2316.972656 1430.796875 2333.417969 1365.125 2380.011719 1344.273438 C 2385.503906 1341.820312 2385.476562 1341.660156 2384.496094 1335.972656 L 2384.472656 1335.824219 C 2383.921875 1332.625 2383.316406 1332.152344 2382.269531 1331.324219 C 2381.558594 1330.765625 2380.644531 1330.050781 2379.40625 1328.210938 C 2327.351562 1330.921875 2264.953125 1334.789062 2231.027344 1338.25 C 2224.058594 1338.964844 2217.828125 1339.578125 2212.257812 1340.136719 C 2173.679688 1343.957031 2166.730469 1344.65625 2164.210938 1351.582031 C 2155.082031 1376.71875 2102.503906 1807.746094 2102.484375 1807.941406 C 2100.625 1824.003906 2099.023438 1838.3125 2097.59375 1851.085938 C 2088.421875 1933.117188 2086.367188 1951.476562 2067.855469 1964.464844 C 2065.632812 1966.027344 2064.5 1965.972656 2062.574219 1964.425781 C 2059.0625 1961.601562 2060.398438 1958.058594 2063.039062 1954.398438 C 2073.023438 1940.589844 2074.558594 1928.46875 2076.675781 1911.726562 C 2077.121094 1908.203125 2077.59375 1904.476562 2078.175781 1900.476562 Z M 3133 797.441406 C 3098.667969 865.28125 3032.261719 996.496094 2997.320312 1087.015625 L 2997.289062 1087.003906 C 2932.820312 1088.371094 2919.015625 1088.914062 2905.21875 1088.933594 C 2894.789062 1088.949219 2884.347656 1088.671875 2851.996094 1088.222656 C 2849.144531 1088.183594 2847.757812 1088.660156 2847.421875 1088.257812 C 2847.097656 1087.871094 2847.71875 1086.679688 2848.9375 1083.460938 C 2850.238281 1080.023438 2850.882812 1080.265625 2852.5 1080.925781 C 2853.039062 1081.144531 2853.605469 1081.378906 2854.179688 1081.621094 C 2859.777344 1083.957031 2867.113281 1087.015625 2869.425781 1082.679688 C 2870.234375 1081.164062 2869.046875 1079.945312 2867.996094 1078.867188 C 2867.855469 1078.722656 2867.71875 1078.582031 2867.585938 1078.441406 C 2863.625 1074.207031 2860.28125 1072.960938 2858.105469 1072.148438 C 2854.515625 1070.808594 2854.078125 1070.644531 2859.183594 1060.230469 C 2860.085938 1060.492188 2861.050781 1060.789062 2862.066406 1061.097656 C 2867.867188 1062.871094 2875.144531 1065.097656 2879.320312 1063.808594 C 2886.207031 1061.683594 2879.773438 1057.125 2873.339844 1052.558594 C 2872.96875 1052.292969 2872.589844 1052.027344 2872.214844 1051.761719 C 2868.601562 1049.179688 2866.183594 1049.148438 2865.542969 1048.070312 C 2864.890625 1046.964844 2866.097656 1044.757812 2869.773438 1037.59375 C 2889.785156 1045.339844 2895.558594 1041.332031 2893.132812 1038.953125 C 2881.660156 1027.683594 2876.242188 1027.238281 2875.507812 1025.148438 C 2875.042969 1023.832031 2876.445312 1021.867188 2879.367188 1016.136719 C 2881.03125 1016.640625 2882.675781 1017.171875 2884.273438 1017.6875 C 2890.984375 1019.855469 2897.054688 1021.816406 2901.34375 1020.722656 C 2909.589844 1018.609375 2895.105469 1009.59375 2887.816406 1005.96875 C 2886.246094 1005.1875 2885.296875 1004.789062 2884.988281 1004.105469 C 2884.46875 1002.949219 2885.769531 1000.976562 2888.976562 994.960938 C 2894.582031 996.941406 2900.550781 999.109375 2906.484375 1001.269531 C 2937.292969 1012.480469 2967.226562 1023.371094 2941.78125 1005.847656 C 2927.753906 996.179688 2909.960938 988.714844 2894.128906 982.429688 C 2897.207031 974.902344 2897.929688 973.328125 2898.757812 971.550781 C 2899.324219 970.320312 2899.949219 968.992188 2901.417969 965.519531 C 2902.019531 964.085938 2902.511719 964.269531 2905.0625 965.203125 C 2907.058594 965.941406 2910.339844 967.148438 2915.945312 968.402344 C 2920.808594 969.488281 2928.292969 969.367188 2924.9375 965.621094 C 2920.789062 961 2912.765625 956.304688 2908.359375 954.910156 C 2906.007812 954.164062 2906.289062 953.570312 2909.914062 945.734375 C 2910.480469 944.496094 2911.140625 943.074219 2911.882812 941.441406 C 2912.570312 939.941406 2913.203125 940.226562 2915.15625 941.109375 C 2916.226562 941.59375 2917.683594 942.253906 2919.769531 942.902344 C 2932.792969 946.933594 2932.929688 946.890625 2935.609375 946.0625 C 2935.71875 946.027344 2935.832031 945.992188 2935.945312 945.960938 C 2940.964844 944.433594 2933.683594 938.011719 2929.019531 935.574219 C 2925.34375 933.660156 2922.675781 932.523438 2920.808594 931.734375 C 2917.414062 930.292969 2916.710938 929.988281 2917.546875 928.195312 C 2919.144531 924.769531 2920.148438 922.203125 2920.890625 920.328125 C 2922.574219 916.039062 2922.84375 915.355469 2925.511719 916.285156 C 2942.601562 922.246094 2943.222656 922.117188 2945.621094 921.621094 C 2945.957031 921.550781 2946.328125 921.476562 2946.773438 921.40625 C 2942.925781 914.933594 2937.003906 911.851562 2932.746094 909.636719 C 2929.15625 907.769531 2926.757812 906.519531 2927.78125 904.375 C 2929.34375 901.105469 2930.261719 898.785156 2930.90625 897.1875 C 2932.132812 894.085938 2932.289062 893.695312 2933.980469 894.34375 C 2934.835938 894.671875 2935.765625 895.039062 2936.753906 895.429688 C 2943.902344 898.253906 2953.839844 902.183594 2958.785156 899.96875 C 2956.601562 895.199219 2946.253906 889.429688 2941.773438 887.179688 C 2938.816406 885.6875 2937.367188 885.371094 2937.011719 884.574219 C 2936.648438 883.765625 2937.402344 882.464844 2938.808594 878.96875 C 2938.945312 878.632812 2939.078125 878.285156 2939.214844 877.9375 C 2940.414062 874.898438 2941.679688 871.699219 2942.851562 872.667969 C 2950.789062 879.285156 3010.84375 900.730469 3000.777344 892.367188 C 2979.824219 874.953125 2953.394531 863.972656 2949.777344 862.921875 C 2948.316406 862.5 2947.386719 862.265625 2947.023438 861.683594 C 2946.199219 860.386719 2948.121094 857.347656 2952.917969 846.570312 C 2953.792969 844.621094 2954.9375 845.273438 2957.363281 846.660156 C 2959.972656 848.144531 2964.054688 850.46875 2970.851562 851.3125 C 2983.105469 852.828125 2969.375 840.230469 2961.265625 836.503906 C 2959.972656 835.910156 2959.148438 835.613281 2958.8125 835.035156 C 2958.179688 833.917969 2959.390625 831.746094 2962.707031 824.351562 C 2964.640625 820.042969 2964.882812 820.179688 2967.800781 821.824219 C 2970.191406 823.171875 2974.375 825.535156 2982.761719 827.289062 C 2997.976562 830.480469 2985.949219 819.230469 2969.375 810.5 C 2972.867188 800.976562 2973.984375 797.792969 2975.722656 797.402344 C 2977.933594 796.90625 2981.144531 800.886719 2991.453125 802.152344 C 2991.796875 802.195312 2992.148438 802.238281 2992.511719 802.285156 C 2995.625 802.683594 2999.371094 803.160156 2999.699219 801.6875 C 3000.320312 798.84375 2985.773438 790.050781 2982.425781 788.476562 C 2981.097656 787.847656 2980.332031 787.519531 2980.074219 786.960938 C 2979.542969 785.78125 2981.253906 783.585938 2984.628906 775.425781 C 2985.355469 773.667969 2985.679688 773.804688 2990.066406 775.632812 C 2992.53125 776.65625 2996.257812 778.214844 3002.058594 780.269531 C 3021.332031 787.101562 3009.441406 774.859375 3001.660156 770.667969 C 2999.753906 769.636719 2998.136719 768.785156 2996.777344 768.066406 C 2989.574219 764.25 2989.539062 764.230469 2990.632812 762.160156 C 2991.796875 759.96875 2992.566406 758.058594 2993.171875 756.550781 C 2994.390625 753.550781 2994.957031 752.132812 2996.675781 753.253906 C 3012.777344 763.722656 3033.816406 769.65625 3052.269531 774.859375 L 3053.878906 775.3125 C 3065.332031 778.550781 3053.625 766.464844 3001.734375 742.226562 C 2999.949219 741.390625 3000.023438 741.226562 3002.039062 736.9375 C 3002.867188 735.183594 3004.019531 732.746094 3005.5 729.296875 C 3006.160156 727.75 3006.566406 727.980469 3009.179688 729.433594 C 3010.835938 730.355469 3013.375 731.769531 3017.425781 733.535156 C 3036.140625 741.6875 3032.320312 728.496094 3016.804688 720.671875 C 3013.417969 718.964844 3011.625 718.394531 3011.226562 717.308594 C 3010.761719 716.074219 3012.089844 714.171875 3014.898438 709.179688 C 3015.269531 709.324219 3015.613281 709.476562 3015.984375 709.636719 C 3018.003906 710.511719 3020.808594 711.726562 3032.253906 714.597656 C 3034.429688 715.148438 3038.019531 714.535156 3036.335938 712.777344 C 3025.132812 701.078125 3020.011719 700.8125 3019.304688 698.910156 C 3018.839844 697.652344 3020.300781 695.683594 3023.207031 689.257812 C 3023.65625 689.429688 3024.175781 689.628906 3024.742188 689.851562 C 3030.46875 692.074219 3041.632812 696.414062 3046.46875 694.445312 C 3050 693.011719 3042.203125 686.765625 3038.964844 684.738281 C 3035.304688 682.441406 3032.609375 681.300781 3030.8125 680.542969 C 3028.351562 679.503906 3027.585938 679.179688 3028.339844 677.570312 C 3030.867188 672.148438 3031.363281 669.914062 3032.496094 669.519531 C 3034.289062 668.898438 3037.644531 672.832031 3052.957031 676.09375 C 3053.292969 676.164062 3053.625 676.253906 3053.960938 676.347656 C 3055.523438 676.773438 3057.085938 677.203125 3058.40625 675.472656 C 3053.523438 668.082031 3045.457031 662.503906 3039.292969 659.65625 C 3039.105469 659.570312 3038.929688 659.496094 3038.769531 659.425781 C 3036.429688 658.398438 3036.355469 658.363281 3040.910156 648.789062 C 3041.421875 647.714844 3041.707031 647.023438 3042.21875 646.738281 C 3043.605469 645.96875 3046.625 648.15625 3060.179688 653.71875 C 3131.957031 683.160156 3143.105469 687.835938 3154.519531 691.703125 C 3160.21875 693.632812 3165.992188 695.363281 3179.398438 699.875 C 3180.875 700.371094 3181.980469 700.417969 3182.410156 700.984375 C 3184.019531 703.117188 3175.820312 712.628906 3140.910156 781.792969 C 3138.523438 786.523438 3135.871094 791.757812 3133 797.441406 Z M 2419.371094 1064.542969 C 2399.367188 1070.503906 2403.882812 1010.625 2461.371094 986.046875 C 2547.578125 949.195312 2702.445312 967.25 2701.671875 1052.496094 C 2701.644531 1055.003906 2701.628906 1055.003906 2681.480469 1055.15625 C 2654.363281 1055.363281 2590.800781 1055.847656 2441.710938 1063.101562 C 2440.875 1063.144531 2439.976562 1063.1875 2439.039062 1063.234375 C 2431.28125 1063.605469 2420.816406 1064.113281 2419.371094 1064.542969 Z M 3114.957031 1739.660156 C 3114.890625 1739.398438 3114.835938 1739.175781 3114.789062 1739.007812 L 3114.796875 1739.019531 C 3119.289062 1707.699219 3119.613281 1698.160156 3124.234375 1695.101562 C 3126.316406 1693.714844 3129.273438 1693.652344 3133.875 1693.503906 C 3137.757812 1693.371094 3137.460938 1695.296875 3136.167969 1703.414062 C 3135.992188 1704.527344 3135.796875 1705.765625 3135.59375 1707.132812 C 3134.597656 1713.710938 3133.902344 1718.855469 3133.351562 1722.945312 C 3131.25 1738.476562 3131.195312 1738.90625 3124.382812 1745.636719 C 3122.847656 1747.152344 3120.644531 1746.707031 3118.75 1746.324219 C 3118.542969 1746.289062 3118.347656 1746.25 3118.152344 1746.214844 C 3116.488281 1745.898438 3115.4375 1741.628906 3114.957031 1739.660156 Z M 2159.285156 1674.082031 C 2160.308594 1664.796875 2176.941406 1669.535156 2175.257812 1675.261719 C 2171.425781 1708.703125 2171.6875 1712.914062 2169.921875 1714.101562 C 2169.59375 1714.316406 2169.195312 1714.4375 2168.683594 1714.613281 C 2161.648438 1717.097656 2155.15625 1711.332031 2155.679688 1706.589844 Z M 2147.292969 1932.679688 C 2147.152344 1938.210938 2144.308594 1945.851562 2138.007812 1945.851562 C 2129.222656 1945.863281 2130.636719 1932.242188 2132.363281 1915.648438 C 2132.609375 1913.261719 2132.867188 1910.804688 2133.097656 1908.324219 C 2133.839844 1900.375 2143.042969 1899.425781 2147.191406 1902.234375 C 2149.816406 1904.011719 2149.566406 1906.09375 2148.808594 1912.46875 C 2148.292969 1916.8125 2147.542969 1923.125 2147.292969 1932.679688 Z M 2197.40625 1495.152344 C 2197.390625 1496.039062 2197.375 1497.058594 2197.375 1498.257812 C 2196.421875 1507.882812 2195.84375 1514.851562 2195.414062 1519.910156 C 2194.324219 1532.757812 2194.289062 1533.1875 2192.074219 1533.101562 C 2177.695312 1532.535156 2177.886719 1530.65625 2180.738281 1502.609375 C 2180.898438 1501.03125 2181.066406 1499.367188 2181.242188 1497.617188 C 2181.976562 1490.265625 2189.09375 1490.3125 2193.929688 1490.339844 C 2194.609375 1490.339844 2195.246094 1490.347656 2195.8125 1490.328125 C 2197.488281 1490.28125 2197.472656 1491.332031 2197.40625 1495.152344 Z M 3142.929688 1657.664062 C 3142.480469 1661.550781 3139.421875 1671.0625 3134.039062 1670.597656 C 3125.421875 1670.746094 3126.425781 1664.46875 3128.398438 1652.253906 C 3128.816406 1649.707031 3129.261719 1646.890625 3129.679688 1643.832031 C 3130.050781 1641.097656 3130.277344 1638.894531 3130.460938 1637.074219 C 3131.039062 1631.363281 3131.222656 1629.589844 3134.347656 1627.878906 C 3138.828125 1625.414062 3141.878906 1624.308594 3145.355469 1627.199219 C 3146.832031 1628.4375 3146.8125 1628.578125 3145.753906 1635.910156 C 3145.132812 1640.179688 3144.164062 1646.890625 3142.929688 1657.664062 Z M 3160.648438 1529.078125 C 3159.914062 1535.121094 3159.242188 1540.652344 3151.796875 1540.457031 C 3147.472656 1540.34375 3144.574219 1539.554688 3145.074219 1534.8125 C 3146.421875 1521.984375 3147.660156 1512.351562 3150.078125 1501.503906 C 3150.652344 1498.917969 3156.425781 1495.078125 3158.945312 1495.5 C 3161.140625 1495.859375 3162.765625 1497.355469 3164.226562 1499.003906 C 3164.308594 1499.097656 3164.382812 1499.179688 3164.449219 1499.261719 C 3165.042969 1500.109375 3164.457031 1501.78125 3160.945312 1526.78125 C 3160.832031 1527.550781 3160.738281 1528.3125 3160.648438 1529.078125 Z M 2151.160156 1765.996094 C 2151.171875 1765.449219 2151.1875 1764.871094 2151.199219 1764.25 L 2151.1875 1764.257812 C 2151.449219 1749.476562 2154.414062 1742.019531 2155.535156 1739.195312 C 2155.730469 1738.710938 2155.871094 1738.359375 2155.929688 1738.132812 C 2156.449219 1736.230469 2157.753906 1736.320312 2160.332031 1736.488281 C 2160.84375 1736.527344 2161.40625 1736.5625 2162.019531 1736.589844 C 2162.1875 1736.601562 2162.359375 1736.601562 2162.527344 1736.609375 C 2166.035156 1736.738281 2169.023438 1736.84375 2168.164062 1746.242188 C 2166.429688 1765.121094 2166.246094 1767.363281 2165.363281 1769.285156 C 2164.988281 1770.105469 2164.484375 1770.867188 2163.683594 1772.839844 C 2162.210938 1776.445312 2158.914062 1775.589844 2155.355469 1774.660156 L 2155.039062 1774.578125 C 2150.984375 1773.527344 2151.019531 1772.066406 2151.160156 1765.996094 Z M 2201.15625 1438.417969 C 2202.792969 1482.425781 2185.046875 1475.082031 2185.203125 1464.195312 C 2185.667969 1432.515625 2186.429688 1432.523438 2195.632812 1433.332031 C 2199.492188 1433.667969 2201.035156 1435.171875 2201.15625 1438.417969 Z M 3173.058594 1440.910156 C 3173.019531 1441.429688 3173.003906 1441.710938 3173.273438 1441.753906 C 3170.59375 1459.390625 3170.378906 1462.414062 3169.320312 1465.109375 C 3168.894531 1466.195312 3168.335938 1467.21875 3167.425781 1469.113281 C 3164.671875 1474.886719 3154.066406 1469.253906 3155.339844 1461.734375 C 3156.351562 1455.726562 3157.320312 1449.683594 3158.082031 1443.644531 C 3159.410156 1433.109375 3172.027344 1431.09375 3173.03125 1439.21875 C 3173.121094 1439.933594 3173.085938 1440.5 3173.058594 1440.910156 Z M 2161.105469 1806.027344 C 2161.101562 1806.34375 2161.101562 1806.660156 2161.097656 1806.984375 C 2161.050781 1814.328125 2159.59375 1821.410156 2156.832031 1828.214844 C 2155.429688 1831.675781 2155.027344 1831.84375 2151.1875 1831.621094 C 2146.410156 1831.339844 2144.050781 1831.023438 2144.085938 1826.238281 C 2144.160156 1817.453125 2145.292969 1808.757812 2147.285156 1800.199219 C 2148.140625 1796.515625 2148.355469 1796.515625 2153.351562 1796.628906 C 2153.839844 1796.636719 2154.371094 1796.644531 2154.953125 1796.65625 C 2161.1875 1796.75 2161.15625 1800.152344 2161.105469 1806.027344 Z M 2188.113281 1585.550781 C 2186.132812 1592.375 2175.777344 1592.050781 2175.367188 1585.207031 C 2175.050781 1579.964844 2176.605469 1561.660156 2178.511719 1556.78125 C 2179.921875 1553.15625 2180.613281 1552.800781 2184.710938 1553.15625 C 2184.984375 1553.171875 2185.3125 1553.183594 2185.675781 1553.191406 C 2188.242188 1553.257812 2192.621094 1553.359375 2191.832031 1559.078125 C 2190.789062 1566.671875 2190.128906 1571.933594 2189.65625 1575.707031 C 2188.9375 1581.433594 2188.648438 1583.730469 2188.113281 1585.550781 Z M 2166.253906 1637.574219 C 2166.277344 1636.570312 2166.300781 1635.492188 2166.285156 1634.347656 L 2166.296875 1634.359375 C 2166.191406 1626.066406 2167.625 1619.328125 2168.816406 1616.34375 C 2169.429688 1614.800781 2169.691406 1613.839844 2170.3125 1613.253906 C 2171.339844 1612.296875 2173.34375 1612.390625 2179.5625 1612.597656 C 2184.015625 1612.746094 2183.871094 1613.703125 2182.832031 1620.515625 C 2182.671875 1621.558594 2182.492188 1622.746094 2182.304688 1624.085938 C 2182.042969 1625.925781 2181.800781 1627.777344 2181.554688 1629.625 C 2181.109375 1633.019531 2180.660156 1636.414062 2180.117188 1639.777344 C 2179.171875 1645.699219 2173.871094 1647.421875 2169.269531 1645.960938 C 2166.09375 1644.945312 2166.160156 1641.953125 2166.253906 1637.574219 Z M 3138.464844 1581.398438 C 3138.699219 1579.882812 3138.941406 1578.21875 3139.210938 1576.386719 C 3140.9375 1564.488281 3155.550781 1564.550781 3154.902344 1572.519531 C 3154.621094 1575.957031 3152.746094 1591.09375 3150.921875 1596.4375 C 3148.777344 1602.742188 3142.613281 1603.28125 3140.109375 1600.640625 C 3136.214844 1596.53125 3136.394531 1595.371094 3138.464844 1581.398438 Z M 3108.996094 1800.625 C 3108.902344 1799.285156 3108.792969 1797.742188 3108.625 1795.976562 L 3108.625 1795.984375 C 3108.605469 1789.777344 3109.675781 1783.816406 3111.730469 1777.988281 C 3113.550781 1772.800781 3116.332031 1771.238281 3121.851562 1772.382812 C 3125.152344 1773.070312 3126.214844 1774.269531 3125.792969 1777.292969 C 3125.765625 1777.523438 3125.730469 1777.785156 3125.683594 1778.089844 C 3124.734375 1785.109375 3121.183594 1811.261719 3113.449219 1809.652344 C 3109.582031 1808.84375 3109.433594 1806.742188 3108.996094 1800.625 Z M 3185.980469 1321.839844 C 3186.109375 1322.863281 3186.257812 1323.96875 3186.445312 1325.152344 C 3186.398438 1327.539062 3186.378906 1329.613281 3186.359375 1331.433594 C 3186.277344 1340.082031 3186.25 1342.953125 3183.527344 1347.203125 C 3183.332031 1347.507812 3183.191406 1347.878906 3183.050781 1348.253906 C 3182.714844 1349.144531 3182.390625 1350.046875 3181.183594 1350.066406 C 3180.753906 1350.074219 3180.316406 1350.113281 3179.882812 1350.140625 C 3178.199219 1350.277344 3176.488281 1350.417969 3175.039062 1348.988281 C 3171.550781 1345.527344 3171.636719 1344.839844 3172.582031 1337.191406 C 3172.910156 1334.550781 3173.335938 1331.089844 3173.753906 1326.40625 C 3173.847656 1325.390625 3173.847656 1324.265625 3173.855469 1323.113281 C 3173.886719 1318.167969 3173.921875 1312.65625 3180.457031 1313.039062 C 3184.84375 1313.296875 3185.265625 1316.488281 3185.980469 1321.839844 Z M 2205.265625 1385.148438 C 2205.3125 1385.1875 2205.378906 1385.1875 2205.480469 1385.195312 C 2204.714844 1392.449219 2204.25 1397.875 2203.902344 1401.929688 C 2202.894531 1413.644531 2202.863281 1414.003906 2199.472656 1414.351562 C 2192.566406 1415.046875 2189.683594 1411.605469 2190.328125 1407.164062 C 2190.429688 1406.464844 2190.542969 1405.628906 2190.671875 1404.691406 C 2191.710938 1397.160156 2193.660156 1383.011719 2196.992188 1377.898438 C 2198.796875 1375.136719 2203.84375 1375.601562 2204.660156 1378.835938 C 2204.707031 1379.03125 2204.820312 1379.226562 2204.925781 1379.414062 C 2205.074219 1379.675781 2205.21875 1379.925781 2205.21875 1380.195312 C 2205.304688 1384.265625 2205.066406 1385 2205.265625 1385.148438 Z M 3117.046875 1848.324219 C 3116.246094 1856.664062 3115.476562 1864.675781 3107.203125 1864.613281 L 3107.191406 1864.613281 C 3101.929688 1864.574219 3099.570312 1863.730469 3100.089844 1858.570312 L 3100.117188 1858.273438 C 3100.386719 1855.707031 3101.71875 1842.933594 3102.917969 1841.121094 C 3106.429688 1835.8125 3118.523438 1836.816406 3117.652344 1842.878906 C 3117.390625 1844.652344 3117.214844 1846.492188 3117.046875 1848.324219 Z M 3166.902344 1402.226562 C 3166.914062 1401.632812 3166.929688 1400.980469 3166.929688 1400.265625 C 3166.226562 1400.136719 3168.066406 1390.996094 3169.179688 1385.457031 C 3169.644531 1383.160156 3169.980469 1381.476562 3169.960938 1381.328125 C 3169.328125 1377.125 3174.628906 1374.542969 3178.953125 1375.359375 C 3182.96875 1376.121094 3182.328125 1379.832031 3180.671875 1389.527344 C 3180.335938 1391.441406 3179.972656 1393.582031 3179.59375 1395.980469 C 3179.378906 1397.335938 3179.203125 1398.628906 3179.042969 1399.847656 C 3178.105469 1406.820312 3177.546875 1411.003906 3171.691406 1409.089844 C 3166.765625 1407.46875 3166.800781 1406.039062 3166.902344 1402.226562 Z M 2153.199219 1862.726562 C 2153.199219 1862.957031 2153.195312 1863.191406 2153.195312 1863.429688 C 2153.148438 1888.273438 2135.503906 1883.355469 2136.5 1875.320312 C 2136.722656 1873.507812 2139 1856.644531 2139.882812 1854.347656 C 2140.0625 1853.894531 2140.148438 1853.597656 2140.34375 1853.417969 C 2140.839844 1852.964844 2142.023438 1853.261719 2147.050781 1853.625 C 2153.226562 1854.070312 2153.214844 1858.085938 2153.199219 1862.726562 Z M 3113.058594 1891.570312 C 3114.070312 1892.875 3112.84375 1914.515625 3103.734375 1914.746094 C 3100.730469 1914.820312 3098.871094 1913.101562 3098.027344 1910.703125 C 3095.648438 1903.917969 3096.1875 1900.386719 3096.652344 1897.371094 C 3096.789062 1896.472656 3096.921875 1895.617188 3096.964844 1894.734375 C 3097.070312 1892.640625 3098.398438 1891.554688 3099.726562 1890.476562 C 3100.164062 1890.113281 3100.601562 1889.757812 3100.992188 1889.367188 C 3103.351562 1886.988281 3111.785156 1889.9375 3113.058594 1891.570312 Z M 2379.691406 1439.160156 C 2379.785156 1444.304688 2379.855469 1448.113281 2378.207031 1446.117188 C 2346.117188 1407.359375 2391.910156 1367.113281 2394.132812 1375.238281 C 2394.601562 1376.949219 2395.300781 1378.335938 2395.898438 1379.515625 C 2396.648438 1381.003906 2397.242188 1382.183594 2397.011719 1383.289062 C 2396.75 1384.601562 2395.71875 1385.25 2394.585938 1385.976562 C 2392.921875 1387.035156 2391.03125 1388.246094 2391.007812 1391.863281 C 2390.972656 1397.679688 2392.484375 1403.222656 2393.992188 1408.742188 C 2394.09375 1409.105469 2394.191406 1409.46875 2394.289062 1409.832031 C 2396.640625 1418.488281 2417.296875 1412.925781 2427.261719 1410.25 C 2429.125 1409.746094 2430.613281 1409.347656 2431.539062 1409.152344 C 2433.519531 1408.742188 2434.582031 1407.824219 2434.703125 1405.804688 C 2434.753906 1404.980469 2434.917969 1404.140625 2435.082031 1403.304688 C 2435.316406 1402.117188 2435.550781 1400.933594 2435.445312 1399.78125 C 2433.910156 1383.1875 2433.222656 1381.171875 2428.242188 1380.6875 C 2427.898438 1380.660156 2427.574219 1380.632812 2427.273438 1380.605469 C 2423.328125 1380.25 2422.648438 1380.183594 2421.992188 1374.941406 C 2421.59375 1371.761719 2421.371094 1370.164062 2422.035156 1369.597656 C 2422.726562 1369 2424.371094 1369.511719 2427.777344 1370.480469 C 2470.769531 1382.75 2462.914062 1433.472656 2459.179688 1425.382812 C 2458.238281 1423.347656 2457.292969 1421.257812 2456.429688 1419.34375 C 2454.769531 1415.660156 2453.402344 1412.628906 2452.914062 1411.875 C 2447.207031 1403.074219 2440.007812 1417.15625 2436.617188 1427.03125 C 2434.960938 1431.84375 2434.933594 1431.835938 2430.335938 1431.109375 C 2430.136719 1431.082031 2429.925781 1431.046875 2429.710938 1431.007812 C 2421.445312 1429.707031 2413.652344 1431.007812 2406.832031 1436.269531 C 2404.101562 1438.382812 2403.710938 1437.90625 2401.714844 1435.5 C 2399.707031 1433.074219 2396.070312 1428.683594 2386.777344 1422.976562 C 2379.304688 1418.394531 2379.53125 1430.617188 2379.691406 1439.160156 Z M 2432.109375 1493.285156 C 2434.433594 1497.328125 2468.242188 1573.894531 2471.941406 1582.558594 C 2471.75 1582.679688 2471.617188 1582.78125 2471.488281 1582.875 C 2470.71875 1583.441406 2470.328125 1583.730469 2459.011719 1586.539062 C 2434.390625 1592.65625 2429.328125 1594.347656 2428.574219 1593.203125 C 2428.304688 1592.792969 2428.585938 1592.023438 2428.722656 1590.964844 C 2429.265625 1586.75 2429.296875 1571.339844 2429.328125 1553.933594 C 2429.382812 1524.195312 2429.449219 1488.65625 2432.109375 1493.285156 Z M 2432.109375 1493.285156" style="stroke:none;fill-rule:evenodd;fill:#040910;fill-opacity:1;"></path><path d="M 2718.984375 1271.785156 C 2717.179688 1266.058594 2713.945312 1250.71875 2712.078125 1244.15625 C 2705.347656 1220.476562 2701.199219 1237.320312 2712.335938 1196.78125 C 2714.207031 1189.976562 2705.550781 1183.847656 2700.027344 1189.035156 C 2694.191406 1194.519531 2687.21875 1221.257812 2682.132812 1223.757812 C 2667.0625 1231.167969 2647.949219 1248.523438 2646.183594 1253.105469 C 2629.179688 1297.355469 2609.089844 1362.886719 2604.972656 1376.160156 C 2594.753906 1409.042969 2592.050781 1400.574219 2618.265625 1409.144531 C 2622.953125 1410.675781 2622.339844 1410.59375 2660.777344 1291.558594 C 2667.480469 1270.796875 2665.882812 1270.0625 2670.605469 1273.179688 C 2674.042969 1275.445312 2674.230469 1277.027344 2678.953125 1278.246094 C 2686.242188 1280.121094 2690.574219 1276.117188 2689.71875 1280.605469 C 2689.335938 1282.605469 2661.132812 1379.347656 2652.207031 1408.167969 C 2651.882812 1409.207031 2650.851562 1412.203125 2652.867188 1415.167969 C 2653.566406 1416.191406 2654.503906 1416.144531 2671.042969 1418.550781 C 2671.097656 1418.03125 2671.003906 1418.199219 2675.589844 1418.1875 C 2678.089844 1418.1875 2677.058594 1418.691406 2689.355469 1378.894531 C 2722.144531 1272.871094 2720.460938 1276.488281 2718.984375 1271.785156 Z M 2705.738281 1277.027344 C 2702.214844 1275.828125 2697.6875 1275.789062 2695.269531 1271.28125 C 2693 1267.0625 2690.238281 1271.636719 2684.195312 1271.90625 C 2674.074219 1272.351562 2675.589844 1262.933594 2667.25 1265.175781 C 2662.265625 1266.523438 2649.066406 1259.929688 2654.058594 1254.304688 C 2657.433594 1250.503906 2686.363281 1225.898438 2690.769531 1226.363281 C 2693.167969 1226.621094 2695.527344 1227.503906 2697.851562 1228.285156 C 2698.691406 1228.566406 2704.824219 1242.453125 2708.777344 1264.167969 C 2710.253906 1272.296875 2713.535156 1277.128906 2705.738281 1277.027344 Z M 2705.738281 1277.027344" style="stroke:none;fill-rule:nonzero;fill:#040910;fill-opacity:1;"></path><path d="M 2377.753906 1489.929688 C 2378.0625 1483.503906 2371.332031 1485.839844 2357.414062 1471.753906 C 2316.957031 1430.796875 2333.402344 1365.125 2379.996094 1344.273438 C 2385.535156 1341.792969 2385.460938 1341.652344 2384.457031 1335.824219 C 2383.453125 1329.992188 2382.273438 1333.203125 2378.574219 1326.898438 C 2370.140625 1312.527344 2355.898438 1253.058594 2354.289062 1242.136719 C 2353.230469 1234.933594 2354.429688 1227.523438 2361.375 1225.347656 C 2382.726562 1218.644531 2382.253906 1221.246094 2391.234375 1218.5625 C 2396.921875 1216.859375 2403.125 1224.128906 2403.90625 1229.894531 C 2405.085938 1238.558594 2407.550781 1250.394531 2410.050781 1267.246094 C 2418.453125 1323.886719 2411.863281 1319.769531 2412.753906 1324.613281 C 2414.949219 1336.585938 2414.660156 1336.695312 2416.816406 1336.761719 C 2456.308594 1337.925781 2490.949219 1372.125 2492.238281 1411.644531 C 2492.910156 1432.023438 2486.800781 1449.574219 2479.390625 1459.34375 C 2475.414062 1464.585938 2476.6875 1462.90625 2497.789062 1508.019531 L 2525.828125 1568.027344 C 2527.566406 1571.328125 2526.265625 1571.085938 2550.667969 1564.765625 C 2550.890625 1564.710938 2643.757812 1541.886719 2647.382812 1541.402344 C 2651.464844 1540.863281 2646.359375 1534.355469 2655.527344 1528.695312 C 2659.292969 1526.371094 2686.007812 1520.496094 2689.710938 1519.84375 C 2697.3125 1518.507812 2702.6875 1521.359375 2704.796875 1531.355469 C 2710.625 1558.910156 2710.710938 1560.710938 2697.957031 1565.621094 C 2687.867188 1569.496094 2672.714844 1572.917969 2667.109375 1573.03125 C 2656.398438 1573.234375 2659.421875 1567.332031 2652.515625 1569.125 L 2541.332031 1598.007812 C 2537.875 1598.613281 2540.878906 1596.375 2608.21875 1744.203125 C 2615.421875 1760.019531 2639.535156 1853.214844 2641.859375 1870.421875 C 2645.273438 1895.679688 2646.621094 1887.417969 2631.328125 1919.945312 C 2625.878906 1931.535156 2621.574219 1919.582031 2575.589844 1816.328125 C 2484.691406 1612.25 2486.660156 1612.113281 2482.535156 1613.226562 C 2468.960938 1616.910156 2444.101562 1623.6875 2430.457031 1625.898438 C 2427.714844 1626.34375 2428.308594 1627.042969 2428.269531 1633.222656 C 2427.816406 1709.203125 2423.425781 1935.21875 2420.964844 1960.820312 C 2420.527344 1965.367188 2416.417969 1966.929688 2412.820312 1964.082031 C 2381.9375 1939.691406 2387.03125 1946.625 2368.382812 1821.933594 C 2364.542969 1796.253906 2362.097656 1821.71875 2377.726562 1489.949219 Z M 2389.5625 1433.164062 C 2386.816406 1438.847656 2378.804688 1740.785156 2378.488281 1747.085938 C 2376.425781 1788.78125 2374.40625 1791.28125 2375.167969 1804.574219 C 2376.082031 1820.527344 2393.34375 1929.195312 2393.382812 1929.417969 C 2395.019531 1937.785156 2407.855469 1949.3125 2414.296875 1953.875 C 2414.382812 1953.671875 2420.871094 1511.015625 2421.046875 1491.277344 C 2421.085938 1486.65625 2418.445312 1489.296875 2409.679688 1484.472656 C 2395.324219 1476.570312 2391.167969 1458.621094 2399.433594 1444.945312 C 2401.015625 1442.324219 2400.492188 1442.460938 2389.570312 1433.175781 Z M 2636.273438 1886.878906 C 2632.554688 1873.164062 2636.925781 1886.652344 2622.5625 1826.03125 C 2602.816406 1742.707031 2597.5625 1744.167969 2559.359375 1663.921875 C 2430.910156 1394.1875 2452.703125 1411.273438 2440.246094 1433.640625 C 2439.242188 1435.441406 2440.960938 1435.042969 2446.707031 1441.429688 C 2455.84375 1451.582031 2456.449219 1468.390625 2446.34375 1478.355469 C 2438.792969 1485.800781 2438.914062 1484.464844 2440.542969 1488.21875 C 2443.441406 1494.96875 2626.484375 1911.113281 2627.421875 1908.984375 C 2635.5 1890.800781 2634.089844 1893.476562 2636.273438 1886.878906 Z M 2413.945312 1362.382812 C 2446.648438 1361.027344 2476.789062 1395.273438 2464.90625 1432.738281 C 2463.679688 1436.597656 2464.082031 1436.476562 2471.292969 1451.675781 C 2472.09375 1453.359375 2472.578125 1453.394531 2473.535156 1451.917969 C 2506.398438 1401.15625 2460.484375 1336.492188 2402.203125 1346.53125 C 2340.417969 1357.1875 2322.023438 1438.574219 2375.726562 1473.828125 C 2379.929688 1476.589844 2378.109375 1471.746094 2378.8125 1460.21875 C 2379.371094 1450.949219 2357.601562 1443.402344 2361.019531 1410 C 2363.382812 1386.945312 2381.472656 1363.730469 2413.964844 1362.382812 Z M 2378.199219 1446.105469 C 2382.589844 1451.40625 2374.796875 1415.625 2386.773438 1422.96875 C 2405.289062 1434.335938 2401.347656 1440.480469 2406.824219 1436.261719 C 2413.648438 1431 2421.4375 1429.699219 2429.703125 1431 C 2434.925781 1431.816406 2434.878906 1432.039062 2436.609375 1427.019531 C 2440.003906 1417.148438 2447.199219 1403.0625 2452.90625 1411.867188 C 2453.648438 1413.011719 2456.429688 1419.433594 2459.171875 1425.375 C 2462.910156 1433.464844 2470.765625 1382.742188 2427.769531 1370.46875 C 2421.101562 1368.566406 2421.167969 1368.425781 2421.988281 1374.933594 C 2422.691406 1380.574219 2423.425781 1380.214844 2428.234375 1380.679688 C 2433.214844 1381.160156 2433.90625 1383.179688 2435.4375 1399.773438 C 2435.613281 1401.734375 2434.816406 1403.78125 2434.695312 1405.796875 C 2434.574219 1407.8125 2433.515625 1408.734375 2431.535156 1409.144531 C 2425.648438 1410.34375 2397.070312 1420.09375 2394.285156 1409.824219 C 2392.683594 1403.9375 2390.964844 1398.054688 2391 1391.851562 C 2391.039062 1385.761719 2396.355469 1386.507812 2397.007812 1383.28125 C 2397.417969 1381.28125 2395.183594 1379.097656 2394.125 1375.230469 C 2391.902344 1367.105469 2346.109375 1407.347656 2378.199219 1446.105469 Z M 2390.527344 1228.257812 C 2362.023438 1234.261719 2362.042969 1232.898438 2362.785156 1236.78125 C 2364.191406 1244.144531 2379.296875 1315.015625 2383.425781 1321.285156 C 2387.8125 1327.949219 2393.074219 1320.679688 2403.597656 1320.160156 C 2404.761719 1320.101562 2405.605469 1319.738281 2405.71875 1318.4375 C 2407.464844 1299.046875 2396.152344 1231.511719 2396.113281 1231.296875 C 2395.5 1228.339844 2394.953125 1228.175781 2390.527344 1228.257812 Z M 2471.925781 1582.550781 C 2468.226562 1573.886719 2434.414062 1497.320312 2432.089844 1493.277344 C 2427.878906 1485.933594 2430.175781 1579.546875 2428.707031 1590.953125 C 2428.1875 1594.980469 2425.585938 1594.832031 2458.996094 1586.527344 C 2472.140625 1583.265625 2470.542969 1583.40625 2471.925781 1582.550781 Z M 2652.886719 1560.050781 C 2652.570312 1557.847656 2652.066406 1557.066406 2651.046875 1553.042969 C 2649.632812 1547.492188 2652.515625 1546.90625 2644.882812 1548.65625 C 2518.640625 1577.613281 2529.398438 1575.78125 2531.015625 1579.296875 C 2536.191406 1590.507812 2536.101562 1590.992188 2539 1590.246094 C 2653.417969 1560.757812 2648.804688 1563.230469 2652.886719 1560.050781 Z M 2699.84375 1545.160156 C 2699.339844 1541.496094 2698.625 1537.109375 2697.460938 1533.472656 C 2696.085938 1529.152344 2694.597656 1526.1875 2688.015625 1527.691406 C 2684.179688 1528.566406 2677.753906 1529.894531 2666.785156 1532.570312 C 2665.066406 1532.992188 2655.851562 1534.535156 2656.371094 1538.679688 C 2658.875 1558.59375 2659.953125 1564.820312 2667.359375 1564.820312 C 2670.707031 1564.820312 2684.492188 1561.207031 2692.21875 1558.9375 C 2702.632812 1555.878906 2701.285156 1555.664062 2699.84375 1545.160156 Z M 2404.714844 1458.488281 C 2403.273438 1468.539062 2413.878906 1479.804688 2425.054688 1479.203125 C 2449.273438 1477.898438 2452.273438 1440.554688 2425.035156 1439.132812 C 2414.746094 1438.59375 2403.488281 1448.335938 2404.714844 1458.488281 Z M 2428.375 1610.066406 C 2428.375 1621.816406 2424.011719 1620.105469 2456.652344 1611.351562 C 2481.855469 1604.589844 2481.910156 1605.445312 2480.796875 1602.777344 C 2475.097656 1589.195312 2475.953125 1590.359375 2471.089844 1591.472656 C 2424.914062 1601.996094 2428.375 1598.242188 2428.375 1610.066406 Z M 2427.25 1397.625 C 2427.25 1392.835938 2427.703125 1387.921875 2420.667969 1387.335938 C 2414.242188 1386.796875 2408.253906 1389.164062 2402.007812 1389.777344 C 2399.210938 1390.058594 2398.179688 1391.621094 2398.382812 1394.464844 C 2399.265625 1406.558594 2400.847656 1407.089844 2404.546875 1406.960938 C 2407.808594 1406.839844 2419.859375 1404.679688 2423.585938 1403.871094 C 2427.507812 1403.015625 2427.25 1401.25 2427.25 1397.625 Z M 2407.976562 1381.273438 C 2417.933594 1381.023438 2415.433594 1378.335938 2414.867188 1373.605469 C 2414.445312 1370.144531 2412.476562 1368.535156 2408.945312 1368.777344 C 2399.5 1369.429688 2402.183594 1370.199219 2403.355469 1379.5625 C 2403.617188 1381.664062 2405.234375 1381.339844 2407.976562 1381.273438 Z M 2395.648438 1338.722656 C 2409.453125 1337.609375 2408.488281 1338.390625 2405.660156 1330.058594 C 2405.28125 1328.933594 2404.6875 1328.480469 2403.355469 1328.898438 C 2391.976562 1332.476562 2391.605469 1330.476562 2392.125 1335.757812 C 2392.386719 1338.378906 2392.964844 1338.9375 2395.648438 1338.722656 Z M 2395.648438 1338.722656" style="stroke:none;fill-rule:nonzero;fill:#040910;fill-opacity:1;"></path></g></svg>